{
    "asset" : {
        "generator" : "Khronos glTF Blender I/O v3.2.40",
        "version" : "2.0"
    },
    "scene" : 0,
    "scenes" : [
        {
            "name" : "Scene",
            "nodes" : [
                0
            ]
        }
    ],
    "nodes" : [
        {
            "mesh" : 0,
            "name" : "pongBall"
        }
    ],
    "animations" : [
        {
            "channels" : [
                {
                    "sampler" : 0,
                    "target" : {
                        "node" : 0,
                        "path" : "translation"
                    }
                },
                {
                    "sampler" : 1,
                    "target" : {
                        "node" : 0,
                        "path" : "rotation"
                    }
                },
                {
                    "sampler" : 2,
                    "target" : {
                        "node" : 0,
                        "path" : "scale"
                    }
                }
            ],
            "name" : "pongBall",
            "samplers" : [
                {
                    "input" : 8,
                    "interpolation" : "LINEAR",
                    "output" : 9
                },
                {
                    "input" : 8,
                    "interpolation" : "LINEAR",
                    "output" : 10
                },
                {
                    "input" : 8,
                    "interpolation" : "LINEAR",
                    "output" : 11
                }
            ]
        }
    ],
    "materials" : [
        {
            "doubleSided" : true,
            "name" : "Material.011",
            "pbrMetallicRoughness" : {
                "baseColorFactor" : [
                    0,
                    0,
                    0,
                    1
                ],
                "metallicFactor" : 0,
                "roughnessFactor" : 0.5
            }
        },
        {
            "doubleSided" : true,
            "emissiveFactor" : [
                1,
                1,
                1
            ],
            "name" : "Material.012",
            "pbrMetallicRoughness" : {
                "baseColorFactor" : [
                    0.800000011920929,
                    0.800000011920929,
                    0.800000011920929,
                    1
                ],
                "metallicFactor" : 0,
                "roughnessFactor" : 0.5
            }
        }
    ],
    "meshes" : [
        {
            "name" : "Sphere",
            "primitives" : [
                {
                    "attributes" : {
                        "POSITION" : 0,
                        "NORMAL" : 1,
                        "TEXCOORD_0" : 2
                    },
                    "indices" : 3,
                    "material" : 0
                },
                {
                    "attributes" : {
                        "POSITION" : 4,
                        "NORMAL" : 5,
                        "TEXCOORD_0" : 6
                    },
                    "indices" : 7,
                    "material" : 1
                }
            ]
        }
    ],
    "accessors" : [
        {
            "bufferView" : 0,
            "componentType" : 5126,
            "count" : 494,
            "max" : [
                0.980785071849823,
                1,
                0.9807847738265991
            ],
            "min" : [
                -0.9807844161987305,
                -1,
                -0.9807852506637573
            ],
            "type" : "VEC3"
        },
        {
            "bufferView" : 1,
            "componentType" : 5126,
            "count" : 494,
            "type" : "VEC3"
        },
        {
            "bufferView" : 2,
            "componentType" : 5126,
            "count" : 494,
            "type" : "VEC2"
        },
        {
            "bufferView" : 3,
            "componentType" : 5123,
            "count" : 2208,
            "type" : "SCALAR"
        },
        {
            "bufferView" : 4,
            "componentType" : 5126,
            "count" : 195,
            "max" : [
                0.9999997019767761,
                0.9807852506637573,
                0.9999994039535522
            ],
            "min" : [
                -0.9999990463256836,
                -0.9807853102684021,
                -0.9999987483024597
            ],
            "type" : "VEC3"
        },
        {
            "bufferView" : 5,
            "componentType" : 5126,
            "count" : 195,
            "type" : "VEC3"
        },
        {
            "bufferView" : 6,
            "componentType" : 5126,
            "count" : 195,
            "type" : "VEC2"
        },
        {
            "bufferView" : 7,
            "componentType" : 5123,
            "count" : 672,
            "type" : "SCALAR"
        },
        {
            "bufferView" : 8,
            "componentType" : 5126,
            "count" : 611,
            "max" : [
                25.416666666666668
            ],
            "min" : [
                0
            ],
            "type" : "SCALAR"
        },
        {
            "bufferView" : 9,
            "componentType" : 5126,
            "count" : 611,
            "type" : "VEC3"
        },
        {
            "bufferView" : 10,
            "componentType" : 5126,
            "count" : 611,
            "type" : "VEC4"
        },
        {
            "bufferView" : 11,
            "componentType" : 5126,
            "count" : 611,
            "type" : "VEC3"
        }
    ],
    "bufferViews" : [
        {
            "buffer" : 0,
            "byteLength" : 5928,
            "byteOffset" : 0
        },
        {
            "buffer" : 0,
            "byteLength" : 5928,
            "byteOffset" : 5928
        },
        {
            "buffer" : 0,
            "byteLength" : 3952,
            "byteOffset" : 11856
        },
        {
            "buffer" : 0,
            "byteLength" : 4416,
            "byteOffset" : 15808
        },
        {
            "buffer" : 0,
            "byteLength" : 2340,
            "byteOffset" : 20224
        },
        {
            "buffer" : 0,
            "byteLength" : 2340,
            "byteOffset" : 22564
        },
        {
            "buffer" : 0,
            "byteLength" : 1560,
            "byteOffset" : 24904
        },
        {
            "buffer" : 0,
            "byteLength" : 1344,
            "byteOffset" : 26464
        },
        {
            "buffer" : 0,
            "byteLength" : 2444,
            "byteOffset" : 27808
        },
        {
            "buffer" : 0,
            "byteLength" : 7332,
            "byteOffset" : 30252
        },
        {
            "buffer" : 0,
            "byteLength" : 9776,
            "byteOffset" : 37584
        },
        {
            "buffer" : 0,
            "byteLength" : 7332,
            "byteOffset" : 47360
        }
    ],
    "buffers" : [
        {
            "byteLength" : 54692,
            "uri" : "data:application/octet-stream;base64,"
        }
    ]
}
